<svg xmlns="http://www.w3.org/2000/svg" viewBox="0 0 800 600" width="800" height="600">
  <rect width="800" height="600" fill="#EAF1EF"/>
  <ellipse cx="400" cy="492" rx="230" ry="26" fill="#D3E2DE"/>
  <rect x="250" y="150" width="190" height="340" rx="26" fill="#FFFFFF" stroke="#1B4D4B" stroke-width="5"/>
  <rect x="280" y="112" width="130" height="46" rx="10" fill="#1B4D4B"/>
  <rect x="250" y="250" width="190" height="150" fill="#F1DCCF"/>
  <path d="M250 250 h190 M250 400 h190" stroke="#1B4D4B" stroke-width="5"/>
  <rect x="282" y="282" width="126" height="14" rx="7" fill="#B5562E"/>
  <rect x="282" y="310" width="90" height="10" rx="5" fill="#C9A48D"/>
  <rect x="282" y="332" width="104" height="10" rx="5" fill="#C9A48D"/>
  <rect x="282" y="354" width="70" height="10" rx="5" fill="#C9A48D"/>
  <rect x="470" y="300" width="96" height="190" rx="14" fill="#FFFFFF" stroke="#1B4D4B" stroke-width="5"/>
  <rect x="490" y="276" width="56" height="30" rx="6" fill="#B5562E"/>
  <g fill="#BFD9D5"><rect x="486" y="340" width="64" height="18" rx="3"/><rect x="486" y="366" width="64" height="18" rx="3" fill="#E7C98E"/><rect x="486" y="392" width="64" height="18" rx="3" fill="#E8A9A0"/><rect x="486" y="418" width="64" height="18" rx="3" fill="#A9C7E0"/></g>
</svg>
